<svg xmlns="http://www.w3.org/2000/svg" width="200" height="200" fill="none" viewBox="0 0 200 200">
<!-- SVG created with Arrow, by QuiverAI (https://quiver.ai) -->
  <path d="m194.6 95.32c-1.37-2.85-4.49-2.95-7.62-3.11l0.23-1.37c0.27-1.48-0.85-2.51-2.24-2.68l-25.38-2.15c-1.24-0.13-1.88 0.71-2.06 2.03l-0.13 1.03c-3.07-0.39-5.59-0.75-7.25 1.64-3.07 4.5-1.01 12.45 5.18 17.22l-0.04 0.35c-1.33-0.51-2.78-0.45-4.15-0.25l-4.9 0.7c-1.54 0.24-2.97 0.85-3.91 2l-4.12-0.6c7.13-8.95 10.67-18.22 11.6-29.37 7.99-8.94 18.19-13.7 34.83-14.39l-6.01-6.45 5.37-7.11c-13.24 0-22.97 2.83-33.9 11.98-1.26-9.95-3.6-20.58-13.74-28.03-0.53-4.91-0.05-10.27 1.9-13.7 6.22 0.25 10.54-4.85 10.54-9.34 0-5.81-4.49-8.72-8.75-8.72-6.05 0-9.91 5.1-9.91 9.31 0 3.33 1.39 5.6 3.35 7.06-2.38 3.44-4.26 7.99-4.71 12.16-3.58-0.77-7.55-0.8-10.61 0.08-1.23-2.37-2.46-5.7-3.11-9.83 4.04-1.61 5.65-5.57 5.65-8.32 0-6.14-4.49-9.3-9.15-9.3-5.89 0-9.22 4.85-9.22 9.3 0 5.27 3.96 8.87 7.74 9.35-0.33 4.07 0 8.56 1.32 12.44-3.6 2.37-6.35 5.61-8.12 9.57-8.14-6.96-15.85-9.65-24.99-9.65-11.35 0-20.66 3.96-27.85 11.75l-24.04 6.29-0.17 0.73 19.9-2.19c-6.8 8.95-7.29 18.23-5.67 30.85-13.57 1.41-24.13 5.09-34.11 12.36l6.64 2.75-1.15 10.31c9.82-9.36 21.89-13.71 33.32-13.87 2.38 4.21 5.79 8.46 10.61 11.78-5.33 2.2-14.9 8.33-14.9 11.67 0 1.15 0.73 2.41 1.37 3.3-6.48 3.33-9.89 8.98-9.89 15.27 0 4.09 1.61 7.42 4.2 9.7l-4.82 8.03c-1.69 3.96 1.42 7.48 10.51 8.86 1.89 0.26 4.27 0.31 6.65 0.08l-0.41 25.19c0 3.25 2.38 5.52 6.5 4.88l5.97-0.95c1.86-0.32 3.25-1.21 3.9-2.55l1.07 0.69c1.23 0.81 2.21 1.05 3.82 0.73l14.08-2.15c2.22-0.33 3.61-1.7 4.26-4.45l0.32-1.02 4.58-0.56 0.16 1.01c0.65 2.45 2.87 3.56 5.62 3l5.33-0.79c1.97-0.32 3.1-1.44 3.75-2.74 2.22 1.58 5.01 2.3 8.22 1.98 4.13-0.4 7.79-1.65 11.47-4.17 1.23 1.38 2.77 1.87 5.15 1.38l17.05-2.61c3.7-0.65 4.93-2.63 4.93-5.96v-4.29c0-2.19-0.73-3.32-1.96-4.27v-5.1c0-1.37 0.4-2.51 1.23-3.32 0.65-0.73 0.73-1.66 0.73-2.95v-6.79l12.77-1.81c3.52-0.56 4.5-2.75 4.5-6v-5.1c0-1.46-0.57-2.71-1.47-3.72l5.6 0.81c1.31 0.2 1.88-0.53 2.12-1.89l0.45-2.51c0.32-1.7-0.69-2.26-1.84-2.98l-3.42-2.6c-0.64-2.07-0.4-4.42 0.33-5.45 2.46-1.03 4.4-2.57 5.78-4.27 8.68-0.84 15.36-6.98 16.01-14.69 0.16-1.21-0.25-2.47-0.89-3.5zm-41.17-0.88c0.25-0.81 0.62-1.01 3.41-0.81 0.45 3.33 1.28 6.4 2.43 9.09-3.5-1.98-6.49-5.76-5.84-8.28zm31.1 10.89c0.91-2.17 1.74-4.75 2.5-7.8 2.67 0.08 3.65 0.48 3.73 1.13-0.4 3.45-3.13 7.26-6.23 9.07v-2.4z" fill="#081934"/>
  <path d="m152.8 90.92c-3.6 0.64-3.72 8.83 3.28 14.89 1.94 1.74 4.32 2.96 6.62 3.4l0.45-3.04c-5.01-1.81-7.07-9.86-7.31-13.11-0.09-1.34-0.92-2.45-3.04-2.14z" fill="#F0B628" stroke="#081934" stroke-miterlimit="10" stroke-width="1.6"/>
  <path d="m189.3 95.12-6.11-0.68-0.65 3.33 2.3 0.16c1.95 0 4.33-0.32 5.15 0.61-1.06 6.53-6.35 10.67-11.36 11.16l-0.65 1.9c8.29 0 14.1-6.67 15.12-12.9 0.25-1.82-0.9-3.29-3.8-3.58z" fill="#F0B628" stroke="#081934" stroke-miterlimit="10" stroke-width="1.6"/>
  <path d="m159.2 88.16 25.69 2.59c-1.24 8.64-5.8 21.17-13.44 24.5-1.15 1.38-0.74 5.67 0.77 7.57l3.42 2.84-15.7-1.99 5.01-2.45c1.69-0.93 2.34-4.59 1.2-5.72-8.14-6.13-8.3-16.84-6.95-27.34z" fill="url(#paint0_linear_218_477)" stroke="#081934" stroke-miterlimit="10" stroke-width="1.6"/>
  <path d="m162.7 92.41 0.9 0.12c0.65 0.08 1.1 0.69 1.02 1.34l-0.73 7.27c-0.09 0.77-1.23 0.97-1.72 0.33l-0.32-0.45c-0.2-0.28-0.29-0.6-0.25-0.95l0.45-6.56c0-0.69 0.32-1.18 0.65-1.1z" fill="#FEFFFE"/>
  <path d="m163.7 104.1 0.17 0.04c0.57 0.12 0.89 0.65 0.77 1.21-0.16 0.72-1.06 0.96-1.63 0.47l-0.17-0.16c-0.73-0.65-0.12-1.93 0.86-1.56z" fill="#FEFFFE"/>
  <path d="m159.6 125.7 16.83 2.19-0.65 3.01-16.55-2.45 0.37-2.75z" fill="#773A2A" stroke="#081934" stroke-miterlimit="10" stroke-width="1.6"/>
  <path d="m5.01 70.01 31.31-7.31c1.24-0.32 0.91 2.81-0.4 3.06l-30.99 4.41 0.08-0.16z" fill="#081934"/>
  <path d="m23.83 116.4c1.23-3.72 2.38-5.27 4.93-7.02l-2.83-0.56c-2.22 1.21-4.09 4.54-4.54 7.21l2.44 1.76v-1.39z" fill="#D82A36"/>
  <path d="m82.11 11.21 2.92-5.81 3.35 1.21-3.27 6.3-3-1.7z" fill="#F0B628"/>
  <path d="m36.97 22.21 0.24-4.49c3.8-0.16 5.82 0.69 7.11 4.01l-1.5 2.68c-1.48-2.24-3.1-2.6-5.85-2.2z" fill="#D19A3A"/>
  <path d="m90.52 25.76 2.76-0.56 2.46 3.72-2.46 3.33-2.76-4.98v-1.51z" fill="#36B294"/>
  <path d="m49.19 32.73 4.74-6.81 2.38 1.51 0.57 1.25-4.57 5.82-3.12-1.77z" fill="#36B294"/>
  <path d="m157.7 40.33c2.46 0.8 4.52 0.32 7.53-1.83l0.9 3.8c-2.52 2.15-5.27 2.72-7.9 1.87l-0.53-3.84z" fill="#36B294"/>
  <path d="m19.41 39.98 1.15-3.96c3.6 0 5.65 1.39 6.89 4.71l-1.79 3.2c-1.87-3.32-3.48-3.95-6.25-3.95z" fill="#D82A36"/>
  <path d="m67.29 18.41 3.82-1.58c0.49 3.08 1.14 4.58 3.36 6.23l-2.22 2.62c-3.34-0.48-4.49-3.39-4.96-7.27z" fill="#D82A36"/>
  <path d="m37.37 175.7c1.24-3.08 2.54-4.97 4.85-5.46l2.76 1.77c-2.44 1.02-3.6 2.65-4.83 6.21l-2.78-2.52z" fill="#47C4C6"/>
  <path d="m159.6 156.5 0.53 0.16c1.5 3.03 2.8 4.28 6.01 5.46l-2.15 2.67c-3.35-0.48-5.22-4.41-4.39-8.29z" fill="#D82A36"/>
  <path d="m37.37 103.9 1.69-1.8 1.67 0.65 1.49 2.69-2.38 1.77-2.47-1.77v-1.54z" fill="#36B294"/>
  <path d="m151.6 25.6c-3.68 0-2.17 5.04 0.6 4.23 2.75-0.79 2.43-4.23-0.6-4.23z" fill="#F0B628"/>
  <path d="m188.3 70.5c-3.23 0-2.44 4.37 0.16 3.97 2.49-0.41 2.49-3.97-0.16-3.97z" fill="#D19A3A"/>
  <path d="m171.4 72.3c-1.77 1.28-0.36 2.97 1.05 2.53 1.69-0.57 1.29-3.64-1.05-2.53z" fill="#F0B628"/>
  <path d="m56.11 10.79c-1.07 1.28 0.12 2.12 0.81 1.8 1.42-0.56 0.81-2.53-0.81-1.8z" fill="#36B294"/>
  <path d="m19.91 55.48c-2.5 0.84-0.99 4.17 0.7 3.33 2-0.97 1.51-4.05-0.7-3.33z" fill="#37A9C2"/>
  <path d="m13.17 77.47c-1.39 1.62 0.24 3.43 1.75 2.58 1.96-1.12 0.81-3.97-1.75-2.58z" fill="#F0B628"/>
  <path d="m40.77 39.78c-2.76 0.48-1.93 4.43 0.53 3.87 2.48-0.63 2.01-4.27-0.53-3.87z" fill="#F0B628"/>
  <path d="m149.8 66.73c7.62-7.36 15.12-11 27.89-11.56l-2.46 3.96 4.84 5.33c-13.25 1.46-19.21 3.91-29.98 12.63l-0.29-10.36z" fill="#B21224" stroke="#081934" stroke-miterlimit="10" stroke-width="1.6"/>
  <path d="m30.98 87.02c3.96-0.93 8.65-1.78 14.24-1.86l-2.11-6.23-1.49-8.43 4.42-12.9 9.25-10.59 11.92-7.31 12.52-1.28 9.49 1.28 9.56 5.98 4.4 3.72-2.46 7.71 3.43 13.39 2.46 10.11-1.95 11.2-13.65 0.32-16.9-3.42-18.82-3.43-9.58-0.56-14.73 2.3z" fill="#B56832"/>
  <path d="m46.12 70.01-2.38 6.15 2.38 6.29 4.93 3.36 3.87-0.25-2.24-5.94 2.38-9.61 5.87-8.2 9.08-3.45 11.51 2.37 7.37 8.51 3.43 9.77-1.23 10.96 2.03 0.64 5.9-3.99 4.49-9.53 0.72 5.92-0.56 8.27-9.66 0.53-17.9-2.78-18.99-3.75-6.31-0.56-4.69-5.71v-9z" fill="#935129"/>
  <path d="m45.14 95.12c4.5 7.72 11.98 14.41 22.62 14.41 9.08 0 20.05-2.75 27.36-8.11l7.77-0.48 9.17-1.72 12-2.99 10.97-5.62 11.45-7.19c-2.02 10.49-7.47 21.19-14.27 27.33l-4.5 1.97-2.53 4.49-4.57 1.98-2.46-4.49c-1.62-1.54-3.03-1.62-4.99-1.3l-5.91 0.93c-2.38 0.4-3.91 2.13-4.84 4.78l-1.24 2.94-3.43 0.16-0.53-3.1c-1.02-2.44-3.24-3.9-6.53-3.41l-5.97 0.93c-2.03 0.4-3.09 1.43-3.19 3.4v2.39l-3.09-0.41-1.61-2.09c-1.06-1.29-2.35-1.61-4.21-1.29l-5.69 0.93c-1.51 0.32-2.17 0.89-3 1.91-4.57-1.35-10.84-1.91-15.91-0.76-1.77 0.41-3.99 1.05-4.98-0.67-1.33-2.53 9.64-9.41 17.2-11.31l-3.92-2.92-7.24-6.79-3.93-3.9z" fill="url(#paint1_linear_218_477)" stroke="#081934" stroke-miterlimit="10" stroke-width="1.6"/>
  <path d="m49.03 95.72c10.89-0.56 17.98 4.27 29.32 3.38 2.68-0.24 4.98-0.08 6.36 0.08-3.68 3.94-8.34 8.16-15.43 8.16-8.06 0-16.07-5.87-20.25-11.62z" fill="#935129"/>
  <path d="m46.91 119.4c3.94-3.25 7.1-5.12 15.24-4.27 12.08 1.29 25.02-1.62 37.11-7.91l4.93-4.5 9.09-1.54 13.57-4.5 7.73-4.55 9.08-7.72c-4.85 14.57-12.33 25.37-26.48 28.91-2.95-1.28-7.15-0.8-10.75 0.12-2.6 0.73-4.02 3.31-5.08 6.24l-4.02 0.36-0.98-2.81c-1.23-1.98-3.27-2.42-6.28-1.93l-5.36 0.81c-2.03 0.31-3.09 1.34-3.19 3.33v1.68h-3.09l-1.61-2.37c-1.06-1.28-2.35-1.6-4.21-1.28l-5.69 0.95c-1.23 0.25-2.21 0.81-3 1.83-5.09-1.46-10.44-2.19-17.01-0.85z" fill="#E8B589"/>
  <path d="m42.22 74.91c0-17.8 14.82-35.93 35.64-35.93 10.56 0 18.21 3.8 25.32 10.42l-1.47 7.31 1.18 10.31 3.19 10.07v7.87l-1.37 6.76c-13.7 0.89-27.89-2.2-41.63-5.59-10.4-2.1-20.86-0.64-20.86-11.22z" stroke="#081934" stroke-miterlimit="10" stroke-width="1.6"/>
  <path d="m117.6 35.15c1.77-1.03 8.24-1.27 13.06 0.26 11.53 3.81 18.13 12.32 18.13 34.2v2.37c-10.47 13.3-25.29 19.83-43.5 19.83 2.46-6.53 1.89-11.64-0.57-19.83-3.9-13.17-2.67-27.17 8.37-33.72l4.51-3.11z" fill="#FBD5A0" stroke="#081934" stroke-miterlimit="10" stroke-width="1.6"/>
  <path d="m110.5 23.62c-0.33 5.62 0.5 12.15 2.61 17.11" stroke="#081934" stroke-linecap="round" stroke-miterlimit="10" stroke-width="3"/>
  <path d="m115.4 25.12c0.75 4.65 1.94 8.84 3.71 12.37" stroke="#081934" stroke-linecap="round" stroke-miterlimit="10" stroke-width="3"/>
  <path d="m134.4 20.73c-2.38 3.43-3.69 7.99-4.14 13.89" stroke="#081934" stroke-linecap="round" stroke-miterlimit="10" stroke-width="3"/>
  <path d="m111.5 7.71c-5.13 0-7.75 4.36-7.75 7.71 0 4.69 3.54 7.84 7.34 7.84 5.23 0 7.95-4.18 7.95-7.55 0-4.72-3.39-8-7.54-8z" fill="#FEFFFE" stroke="#081934" stroke-miterlimit="10" stroke-width="2.5"/>
  <path d="m140 6.61c-5.21 0-7.86 4.4-7.86 7.7 0 4.45 3.43 7.1 6.52 7.1 4.97 0 8.53-4.38 8.53-7.69 0-4.44-3.29-7.11-7.19-7.11z" fill="#FEFFFE" stroke="#081934" stroke-miterlimit="10" stroke-width="2.5"/>
  <path d="m112.9 10.14c-3.94 0-5.63 3.34-5.63 5.48 0 2.79 2.26 4.65 4.37 4.65 3.66 0 5.35-2.99 5.35-5.13 0-2.79-1.93-5-4.09-5z" fill="#081934"/>
  <path d="m114.5 12.03c-1.23 0-1.8 0.84-1.8 1.49 0 0.89 0.73 1.45 1.42 1.45 1.28 0 1.85-1.05 1.85-1.7 0-0.88-0.66-1.24-1.47-1.24z" fill="#FEFFFE"/>
  <path d="m141 8.68c-3.94 0-5.64 3.35-5.64 5.49 0 2.79 2.26 4.64 4.37 4.64 3.66 0 5.35-2.99 5.35-5.13 0-2.79-1.93-5-4.08-5z" fill="#081934"/>
  <path d="m142.1 10.55c-1.23 0-1.8 0.84-1.8 1.48 0 0.88 0.73 1.45 1.42 1.45 1.28 0 1.85-1.05 1.85-1.7 0-0.87-0.65-1.23-1.47-1.23z" fill="#FEFFFE"/>
  <path d="m126.1 58.81c-1.31-0.41-1.72 0.4-1.6 2.12 0.25 3.78 2.71 6.23 6.13 5.83 3.1-0.4 4.87-3.74 4.58-7.19-0.16-1.45-1.07-1.29-1.98-0.8-1.96 1.04-4.42 0.8-7.13 0.04z" fill="#081934"/>
  <path d="m127.3 62.13c-0.83 0.41-0.3 2.48 1.84 2.89 2.14 0.4 3.47-1.4 3.06-2.36-0.53-1.17-3.18-1.45-4.9-0.53z" fill="#F37575"/>
  <path d="m115.9 62.05c-3.94 0.33-4.47 3.57-1.56 4.42 2.93 0.85 5.84-0.85 5.84-2.49 0-1.36-1.5-2.17-4.28-1.93z" fill="#F37575"/>
  <path d="m143 58.61c-3.94 0-4.26 2.36-3.21 3.52 1.6 1.81 6 1.09 6.65-0.36 0.73-1.63-0.5-3.16-3.44-3.16z" fill="#F37575"/>
  <path d="m73.18 45.72c-2.93 0.4-2.44 2.85 0.33 2.85 2.76 0 2.76-3.33-0.33-2.85z" fill="#F1B882"/>
  <path d="m81.76 45.48c-3.94 0.48-3.65 3.6 1.17 5.22 4.48 1.53 6.25 2.81 7.95 1.53 2.2-1.65 0.45-4.42-3.47-5.62-2.38-0.77-3.69-1.33-5.65-1.13z" fill="#F1B882"/>
  <path d="m94.46 54.44c-2.54 0-2.27 3.44-0.25 3.44 2.47 0 2.55-3.44 0.25-3.44z" fill="#F1B882"/>
  <path d="m69.72 57.6c-10.97 0.72-17.45 9.46-17.45 18.48 0 7.71 4.93 13.03 13.5 13.03 6.84 0 11.85-4.88 11.85-10.5 0-5.4-3.94-9-8.26-9-4.48 0-8.78 3.32-8.78 7.48 0 3.32 2.38 5.77 5.64 5.77 3.5 0 3.87-2.69 3.5-4.25" stroke="#081934" stroke-miterlimit="10" stroke-width="2"/>
  <path d="m9.13 96.15c11.76-8.41 24.2-11.03 38.84-11.03 15.07 0 26.22 7.21 51.9 7.21 18.76 0 34.91-6.6 48.91-19.91 0.93 2.45 0.46 5.99-1.05 8.44-10.1 12.81-25.5 20-45.12 20-19.93 0-32.52-6.14-51.6-6.14-13 0-24.8 2.93-37.32 11.37l1.23-6.99-5.79-2.95z" fill="#EE3135" stroke="#081934" stroke-miterlimit="10" stroke-width="1.6"/>
  <path d="m24.12 74.18 11.11-2.85c1.62-0.48 1.38 1.97 0.32 2.13l-11.43 1.29v-0.57z" fill="#081934"/>
  <path d="m36.28 156.9 2.58-6.57c2.76 1.89 5.45 2.58 8.83 2.25 4.22-0.44 5.03-2.17 4.94-3.94-0.16-1.48-1.82-1.88-5.84-2.2-5.57-0.49-10.18-1.95-9.86-8.53 0.28-6.78 5.41-11.42 14.16-12.22 3.75-0.37 6.84 0.16 9.22 1.62l-2.7 6.8c-2.18-1.32-4.69-1.69-7.49-1.41-3.39 0.37-4.54 2.06-4.45 3.52 0.04 1.37 1.69 1.77 5.54 2.13 5.43 0.49 9.97 1.44 9.6 8.81-0.33 6.25-5.1 11.55-13.94 12.28-4.65 0.36-8.05-0.65-10.59-2.54z" fill="#F0B628" stroke="#081934" stroke-miterlimit="10" stroke-width="1.6"/>
  <path d="m65.12 123.8 8.14-1.21 11.97 16.36 0.04-18.65 8.13-1.1-0.32 33.94-7.4 0.95-11.73-16.39-0.57 18.01-8.67 1.09 0.41-33z" fill="#F0B628" stroke="#081934" stroke-miterlimit="10" stroke-width="1.6"/>
  <path d="m107 117.6 9.56-1.46 12.09 32.47-8.74 1.29-2.3-5.85-12.01 1.63-2.39 6.37-8.51 1.25 12.3-35.7zm8.32 19.68-3.27-11.02-4.24 12.06 7.51-1.04z" fill="#F0B628" stroke="#081934" stroke-miterlimit="10" stroke-width="1.6"/>
  <path d="m131.1 114.6 9.09-1.37-0.83 34.02-9.1 1.45 0.84-34.1z" fill="#F0B628" stroke="#081934" stroke-miterlimit="10" stroke-width="1.6"/>
  <path d="m145.8 112.8 8.83-1.44-1.02 26.25 14.36-1.97-0.25 8.55-22.25 3.03 0.33-34.42z" fill="#F0B628" stroke="#081934" stroke-miterlimit="10" stroke-width="1.6"/>
  <path d="m53.17 162.9 12.61-1.79c6.83-0.94 9.94 3.04 9.7 8.65-0.21 4.14-2.22 7.38-5.27 9.15l5.47 8.99-7.56 1.07-4.2-7.55-3.9 0.48-0.24 8-7.1 1.01 0.49-28.01zm10.54 12.16c3.34-0.4 4.67-2.21 4.67-4.98 0-2.37-1.5-3.42-4.14-3.06l-4.13 0.57-0.24 7.96 3.84-0.49z" fill="#FEFFFE" stroke="#081934" stroke-miterlimit="10" stroke-width="1.6"/>
  <path d="m87.41 158.4 7.1-1.02 10.12 26.45-7.5 1.13-1.69-5.25-9.76 1.22-2.22 6.65-7.25 1.07 11.2-30.25zm6.56 15.54-3.05-9.39-3.59 10.3 6.64-0.91z" fill="#FEFFFE" stroke="#081934" stroke-miterlimit="10" stroke-width="1.6"/>
  <path d="m104.7 169.1c0.32-9.11 6.91-15.17 14.2-15.41 3.94-0.16 6.61 1.45 8.65 4.2l-4.47 5.4c-1.39-1.98-3.08-2.46-4.94-2.38-4.22 0.28-6.69 3.67-6.53 8.48 0.16 4.61 2.11 6.8 5.97 6.4 2.66-0.28 4.19-1.91 5.58-4.12l4.9 3.96c-2.46 4.06-6.04 6.97-11.38 7.25-7.71 0.4-12.3-5-11.98-13.78z" fill="#FEFFFE" stroke="#081934" stroke-miterlimit="10" stroke-width="1.6"/>
  <path d="m131.7 152.6 17.99-2.53v6.03l-12.08 1.66v4.49l10.46-1.45v5.7l-10.46 1.46v5.32l12.08-1.78v6.01l-18.5 2.74 0.51-27.65z" fill="#FEFFFE" stroke="#081934" stroke-miterlimit="10" stroke-width="1.6"/>
  <defs>
    <linearGradient id="paint0_linear_218_477" x1="169.5" x2="169.5" y1="88.16" y2="125.9" gradientUnits="userSpaceOnUse">
      <stop stop-color="#F0B628" offset="0"/>
      <stop stop-color="#F6D556" offset="1"/>
    </linearGradient>
    <linearGradient id="paint1_linear_218_477" x1="95.43" x2="95.43" y1="94.07" y2="120.9" gradientUnits="userSpaceOnUse">
      <stop stop-color="#FBD5A0" offset="0"/>
      <stop stop-color="#F0B690" offset="1"/>
    </linearGradient>
  </defs>
</svg>